# Blender v2.76 (sub 0) OBJ File: 'uv mapped plane.blend'
# www.blender.org
mtllib textured_plane.mtl
o Plane
v -1000.004211 -0.048080 1000.068726
v 999.995789 -0.048080 1000.068726
v -1000.004211 -0.048080 -999.931274
v 999.995789 -0.048080 -999.931274
v -1000.004211 -0.048080 0.068748
v -0.004196 -0.048080 1000.068726
v 999.995789 -0.048080 0.068748
v -0.004196 -0.048080 -999.931274
v -0.004196 -0.048080 0.068748
v -1000.004211 -0.048080 500.068756
v 499.995789 -0.048080 1000.068726
v 999.995789 -0.048080 -499.931244
v -500.004211 -0.048080 -999.931274
v -500.004211 -0.048080 -499.931244
v -1000.004211 -0.048080 -499.931244
v -500.004211 -0.048080 1000.068726
v 999.995789 -0.048080 500.068756
v 499.995789 -0.048080 -999.931274
v 499.995789 -0.048080 500.068756
v -500.004211 -0.048080 0.068748
v -500.004211 -0.048080 500.068756
v -0.004196 -0.048080 500.068756
v -0.004196 -0.048080 -499.931244
v 499.995789 -0.048080 0.068748
v 499.995789 -0.048080 -499.931244
v -1000.004211 -0.048080 750.068726
v 749.995789 -0.048080 1000.068726
v 999.995789 -0.048080 -749.931274
v -750.004211 -0.048080 -999.931274
v -750.004211 -0.048080 -749.931274
v -1000.004211 -0.048080 -249.931244
v -250.004196 -0.048080 1000.068726
v 999.995789 -0.048080 250.068756
v 249.995804 -0.048080 -999.931274
v 249.995804 -0.048080 250.068756
v -250.004196 -0.048080 0.068748
v -250.004196 -0.048080 750.068726
v -0.004196 -0.048080 750.068726
v -0.004196 -0.048080 -749.931274
v 749.995789 -0.048080 0.068748
v 749.995789 -0.048080 -249.931244
v -1000.004211 -0.048080 250.068756
v 249.995804 -0.048080 1000.068726
v 999.995789 -0.048080 -249.931244
v -250.004196 -0.048080 -999.931274
v -250.004196 -0.048080 -249.931244
v -1000.004211 -0.048080 -749.931274
v -750.004211 -0.048080 1000.068726
v 999.995789 -0.048080 750.068726
v 749.995789 -0.048080 -999.931274
v 749.995789 -0.048080 750.068726
v -750.004211 -0.048080 0.068748
v -750.004211 -0.048080 250.068756
v -0.004196 -0.048080 250.068756
v -0.004196 -0.048080 -249.931244
v 249.995804 -0.048080 0.068748
v 249.995804 -0.048080 -749.931274
v 499.995789 -0.048080 -749.931274
v 749.995789 -0.048080 -499.931244
v 749.995789 -0.048080 -749.931274
v 249.995804 -0.048080 -499.931244
v 249.995804 -0.048080 -249.931244
v 499.995789 -0.048080 -249.931244
v -500.004211 -0.048080 -749.931274
v -250.004196 -0.048080 -499.931244
v -250.004196 -0.048080 -749.931274
v 249.995804 -0.048080 500.068756
v 249.995804 -0.048080 750.068726
v 499.995789 -0.048080 750.068726
v -250.004196 -0.048080 250.068756
v -500.004211 -0.048080 250.068756
v -250.004196 -0.048080 500.068756
v -750.004211 -0.048080 -499.931244
v -750.004211 -0.048080 -249.931244
v -500.004211 -0.048080 -249.931244
v -750.004211 -0.048080 500.068756
v -750.004211 -0.048080 750.068726
v -500.004211 -0.048080 750.068726
v 499.995789 -0.048080 250.068756
v 749.995789 -0.048080 500.068756
v 749.995789 -0.048080 250.068756
vt 15.998399 0.001600
vt 15.998399 2.001200
vt 13.998799 2.001200
vt 0.001601 0.001603
vt 2.001200 0.001602
vt 0.001601 2.001202
vt 0.001600 8.000001
vt 2.001200 8.000001
vt 0.001601 9.999601
vt 2.001200 6.000401
vt 7.999999 0.001601
vt 9.999599 0.001601
vt 8.000000 2.001201
vt 8.000000 8.000001
vt 8.000000 9.999601
vt 6.000400 9.999601
vt 9.999599 8.000001
vt 15.998399 8.000001
vt 15.998399 9.999601
vt 13.998798 9.999601
vt 11.999199 11.999200
vt 11.999199 13.998799
vt 9.999600 13.998799
vt 13.998799 11.999200
vt 15.998399 11.999201
vt 15.998397 13.998799
vt 13.998799 13.998799
vt 8.000000 11.999201
vt 9.999599 11.999200
vt 8.000000 13.998800
vt 9.999599 9.999601
vt 11.999199 8.000001
vt 13.998799 8.000001
vt 11.999199 9.999601
vt 4.000800 11.999201
vt 4.000801 13.998800
vt 2.001201 13.998800
vt 6.000400 11.999201
vt 6.000400 13.998800
vt 8.000000 4.000801
vt 9.999599 4.000801
vt 8.000000 6.000401
vt 9.999599 2.001200
vt 11.999198 0.001601
vt 13.998799 0.001600
vt 11.999199 2.001200
vt 4.000800 8.000001
vt 6.000399 6.000401
vt 6.000400 8.000001
vt 4.000800 6.000401
vt 4.000800 4.000802
vt 6.000399 2.001202
vt 6.000399 4.000801
vt 0.001601 11.999201
vt 2.001201 11.999201
vt 0.001601 13.998800
vt 2.001200 9.999601
vt 4.000800 9.999601
vt 0.001601 4.000801
vt 2.001200 4.000802
vt 0.001601 6.000401
vt 2.001200 2.001202
vt 4.000799 0.001603
vt 6.000398 0.001602
vt 4.000799 2.001202
vt 11.999199 4.000801
vt 11.999199 6.000401
vt 9.999599 6.000401
vt 13.998799 4.000801
vt 15.998399 4.000801
vt 15.998399 6.000401
vt 13.998799 6.000401
vt 0.001601 15.998401
vt 6.000401 15.998399
vt 4.000801 15.998401
vt 8.000001 15.998399
vt 2.001201 15.998401
vt 13.998799 15.998399
vt 11.999199 15.998399
vt 15.998399 15.998399
vt 9.999601 15.998399
vn 0.000000 1.000000 0.000000
usemtl diffuse_texture
s off
f 2/1/1 49/2/1 51/3/1
f 1/4/1 48/5/1 26/6/1
f 5/7/1 52/8/1 31/9/1
f 5/7/1 53/10/1 52/8/1
f 6/11/1 43/12/1 38/13/1
f 9/14/1 55/15/1 46/16/1
f 9/14/1 56/17/1 55/15/1
f 7/18/1 44/19/1 41/20/1
f 25/21/1 58/22/1 57/23/1
f 25/21/1 59/24/1 58/22/1
f 12/25/1 28/26/1 60/27/1
f 23/28/1 61/29/1 39/30/1
f 23/28/1 62/31/1 61/29/1
f 24/32/1 40/33/1 63/34/1
f 14/35/1 64/36/1 30/37/1
f 14/35/1 65/38/1 64/36/1
f 23/28/1 39/30/1 66/39/1
f 22/40/1 67/41/1 54/42/1
f 22/40/1 68/43/1 67/41/1
f 11/44/1 27/45/1 69/46/1
f 20/47/1 70/48/1 36/49/1
f 20/47/1 71/50/1 70/48/1
f 21/51/1 37/52/1 72/53/1
f 15/54/1 73/55/1 47/56/1
f 15/54/1 74/57/1 73/55/1
f 20/47/1 36/49/1 75/58/1
f 10/59/1 76/60/1 42/61/1
f 10/59/1 77/62/1 76/60/1
f 16/63/1 32/64/1 78/65/1
f 19/66/1 79/67/1 35/68/1
f 19/66/1 80/69/1 79/67/1
f 17/70/1 33/71/1 81/72/1
f 81/72/1 40/33/1 24/32/1
f 81/72/1 33/71/1 40/33/1
f 33/71/1 7/18/1 40/33/1
f 79/67/1 81/72/1 24/32/1
f 79/67/1 80/69/1 81/72/1
f 80/69/1 17/70/1 81/72/1
f 35/68/1 56/17/1 9/14/1
f 35/68/1 79/67/1 56/17/1
f 79/67/1 24/32/1 56/17/1
f 78/65/1 37/52/1 21/51/1
f 78/65/1 32/64/1 37/52/1
f 32/64/1 6/11/1 37/52/1
f 76/60/1 78/65/1 21/51/1
f 76/60/1 77/62/1 78/65/1
f 77/62/1 16/63/1 78/65/1
f 42/61/1 53/10/1 5/7/1
f 42/61/1 76/60/1 53/10/1
f 76/60/1 21/51/1 53/10/1
f 75/58/1 46/16/1 14/35/1
f 75/58/1 36/49/1 46/16/1
f 36/49/1 9/14/1 46/16/1
f 73/55/1 75/58/1 14/35/1
f 73/55/1 74/57/1 75/58/1
f 74/57/1 20/47/1 75/58/1
f 47/56/1 30/37/1 3/73/1
f 47/56/1 73/55/1 30/37/1
f 73/55/1 14/35/1 30/37/1
f 72/53/1 38/13/1 22/40/1
f 72/53/1 37/52/1 38/13/1
f 37/52/1 6/11/1 38/13/1
f 70/48/1 72/53/1 22/40/1
f 70/48/1 71/50/1 72/53/1
f 71/50/1 21/51/1 72/53/1
f 36/49/1 54/42/1 9/14/1
f 36/49/1 70/48/1 54/42/1
f 70/48/1 22/40/1 54/42/1
f 69/46/1 51/3/1 19/66/1
f 69/46/1 27/45/1 51/3/1
f 27/45/1 2/1/1 51/3/1
f 67/41/1 69/46/1 19/66/1
f 67/41/1 68/43/1 69/46/1
f 68/43/1 11/44/1 69/46/1
f 54/42/1 35/68/1 9/14/1
f 54/42/1 67/41/1 35/68/1
f 67/41/1 19/66/1 35/68/1
f 66/39/1 45/74/1 13/75/1
f 66/39/1 39/30/1 45/74/1
f 39/30/1 8/76/1 45/74/1
f 64/36/1 66/39/1 13/75/1
f 64/36/1 65/38/1 66/39/1
f 65/38/1 23/28/1 66/39/1
f 30/37/1 29/77/1 3/73/1
f 30/37/1 64/36/1 29/77/1
f 64/36/1 13/75/1 29/77/1
f 63/34/1 41/20/1 25/21/1
f 63/34/1 40/33/1 41/20/1
f 40/33/1 7/18/1 41/20/1
f 61/29/1 63/34/1 25/21/1
f 61/29/1 62/31/1 63/34/1
f 62/31/1 24/32/1 63/34/1
f 39/30/1 57/23/1 8/76/1
f 39/30/1 61/29/1 57/23/1
f 61/29/1 25/21/1 57/23/1
f 60/27/1 50/78/1 18/79/1
f 60/27/1 28/26/1 50/78/1
f 28/26/1 4/80/1 50/78/1
f 58/22/1 60/27/1 18/79/1
f 58/22/1 59/24/1 60/27/1
f 59/24/1 12/25/1 60/27/1
f 57/23/1 34/81/1 8/76/1
f 57/23/1 58/22/1 34/81/1
f 58/22/1 18/79/1 34/81/1
f 41/20/1 59/24/1 25/21/1
f 41/20/1 44/19/1 59/24/1
f 44/19/1 12/25/1 59/24/1
f 55/15/1 62/31/1 23/28/1
f 55/15/1 56/17/1 62/31/1
f 56/17/1 24/32/1 62/31/1
f 46/16/1 65/38/1 14/35/1
f 46/16/1 55/15/1 65/38/1
f 55/15/1 23/28/1 65/38/1
f 38/13/1 68/43/1 22/40/1
f 38/13/1 43/12/1 68/43/1
f 43/12/1 11/44/1 68/43/1
f 52/8/1 71/50/1 20/47/1
f 52/8/1 53/10/1 71/50/1
f 53/10/1 21/51/1 71/50/1
f 31/9/1 74/57/1 15/54/1
f 31/9/1 52/8/1 74/57/1
f 52/8/1 20/47/1 74/57/1
f 26/6/1 77/62/1 10/59/1
f 26/6/1 48/5/1 77/62/1
f 48/5/1 16/63/1 77/62/1
f 51/3/1 80/69/1 19/66/1
f 51/3/1 49/2/1 80/69/1
f 49/2/1 17/70/1 80/69/1
