# Blender v2.76 (sub 0) OBJ File: ''
# www.blender.org
mtllib textured_plane.mtl
o Plane
v -50.004196 -0.048080 50.068748
v 49.995804 -0.048080 50.068748
v -50.004196 -0.048080 -49.931252
v 49.995804 -0.048080 -49.931252
v -50.004196 -0.048080 0.068748
v -0.004196 -0.048080 50.068748
v 49.995804 -0.048080 0.068748
v -0.004196 -0.048080 -49.931252
v -0.004196 -0.048080 0.068748
v -50.004196 -0.048080 25.068748
v 24.995804 -0.048080 50.068748
v 49.995804 -0.048080 -24.931252
v -25.004196 -0.048080 -49.931252
v -25.004196 -0.048080 -24.931252
v -50.004196 -0.048080 -24.931252
v -25.004196 -0.048080 50.068748
v 49.995804 -0.048080 25.068748
v 24.995804 -0.048080 -49.931252
v 24.995804 -0.048080 25.068748
v -25.004196 -0.048080 0.068748
v -25.004196 -0.048080 25.068748
v -0.004196 -0.048080 25.068748
v -0.004196 -0.048080 -24.931252
v 24.995804 -0.048080 0.068748
v 24.995804 -0.048080 -24.931252
v -50.004196 -0.048080 37.568748
v 37.495804 -0.048080 50.068748
v 49.995804 -0.048080 -37.431252
v -37.504196 -0.048080 -49.931252
v -37.504196 -0.048080 -37.431252
v -50.004196 -0.048080 -12.431252
v -12.504196 -0.048080 50.068748
v 49.995804 -0.048080 12.568748
v 12.495804 -0.048080 -49.931252
v 12.495804 -0.048080 12.568748
v -12.504196 -0.048080 0.068748
v -12.504196 -0.048080 37.568748
v -0.004196 -0.048080 37.568748
v -0.004196 -0.048080 -37.431252
v 37.495804 -0.048080 0.068748
v 37.495804 -0.048080 -12.431252
v -50.004196 -0.048080 12.568748
v 12.495804 -0.048080 50.068748
v 49.995804 -0.048080 -12.431252
v -12.504196 -0.048080 -49.931252
v -12.504196 -0.048080 -12.431252
v -50.004196 -0.048080 -37.431252
v -37.504196 -0.048080 50.068748
v 49.995804 -0.048080 37.568748
v 37.495804 -0.048080 -49.931252
v 37.495804 -0.048080 37.568748
v -37.504196 -0.048080 0.068748
v -37.504196 -0.048080 12.568748
v -0.004196 -0.048080 12.568748
v -0.004196 -0.048080 -12.431252
v 12.495804 -0.048080 0.068748
v 12.495804 -0.048080 -37.431252
v 24.995804 -0.048080 -37.431252
v 37.495804 -0.048080 -24.931252
v 37.495804 -0.048080 -37.431252
v 12.495804 -0.048080 -24.931252
v 12.495804 -0.048080 -12.431252
v 24.995804 -0.048080 -12.431252
v -25.004196 -0.048080 -37.431252
v -12.504196 -0.048080 -24.931252
v -12.504196 -0.048080 -37.431252
v 12.495804 -0.048080 25.068748
v 12.495804 -0.048080 37.568748
v 24.995804 -0.048080 37.568748
v -12.504196 -0.048080 12.568748
v -25.004196 -0.048080 12.568748
v -12.504196 -0.048080 25.068748
v -37.504196 -0.048080 -24.931252
v -37.504196 -0.048080 -12.431252
v -25.004196 -0.048080 -12.431252
v -37.504196 -0.048080 25.068748
v -37.504196 -0.048080 37.568748
v -25.004196 -0.048080 37.568748
v 24.995804 -0.048080 12.568748
v 37.495804 -0.048080 25.068748
v 37.495804 -0.048080 12.568748
vt 0.008030 0.993975
vt 0.008030 0.008708
vt 0.993297 0.008708
vt 7.890161 0.993973
vt 6.904895 0.993974
vt 7.890161 0.008707
vt 7.890162 -2.947092
vt 6.904895 -2.947092
vt 7.890161 -3.932359
vt 6.904895 -1.961826
vt 3.949097 0.993974
vt 2.963830 0.993974
vt 3.949097 0.008707
vt 3.949097 -2.947092
vt 3.949097 -3.932359
vt 4.934362 -3.932359
vt 2.963830 -2.947092
vt 0.008030 -2.947092
vt 0.008030 -3.932359
vt 0.993297 -3.932359
vt 1.978564 -4.917624
vt 1.978564 -5.902891
vt 2.963829 -5.902891
vt 0.993297 -4.917624
vt 0.008030 -4.917625
vt 0.008031 -5.902891
vt 0.993297 -5.902891
vt 3.949097 -4.917625
vt 2.963830 -4.917624
vt 3.949096 -5.902892
vt 2.963830 -3.932359
vt 1.978564 -2.947092
vt 0.993297 -2.947092
vt 1.978564 -3.932359
vt 5.919629 -4.917625
vt 5.919629 -5.902892
vt 6.904895 -5.902892
vt 4.934362 -4.917625
vt 4.934362 -5.902892
vt 3.949097 -0.976558
vt 2.963830 -0.976558
vt 3.949097 -1.961826
vt 2.963830 0.008708
vt 1.978564 0.993974
vt 0.993297 0.993975
vt 1.978564 0.008708
vt 5.919629 -2.947092
vt 4.934363 -1.961826
vt 4.934362 -2.947092
vt 5.919629 -1.961826
vt 5.919629 -0.976559
vt 4.934363 0.008707
vt 4.934363 -0.976558
vt 7.890161 -4.917625
vt 6.904895 -4.917625
vt 7.890161 -5.902892
vt 6.904895 -3.932359
vt 5.919629 -3.932359
vt 7.890161 -0.976558
vt 6.904895 -0.976559
vt 7.890161 -1.961826
vt 6.904895 0.008707
vt 5.919629 0.993973
vt 4.934363 0.993974
vt 5.919629 0.008707
vt 1.978564 -0.976558
vt 1.978564 -1.961825
vt 2.963830 -1.961825
vt 0.993297 -0.976558
vt 0.008030 -0.976558
vt 0.008030 -1.961826
vt 0.993297 -1.961825
vt 7.890161 -6.888158
vt 4.934361 -6.888157
vt 5.919629 -6.888158
vt 3.949096 -6.888157
vt 6.904895 -6.888158
vt 0.993297 -6.888157
vt 1.978564 -6.888157
vt 0.008030 -6.888157
vt 2.963829 -6.888157
vn 0.000000 1.000000 0.000000
usemtl diffuse_texture
s off
f 2/1/1 49/2/1 51/3/1
f 1/4/1 48/5/1 26/6/1
f 5/7/1 52/8/1 31/9/1
f 5/7/1 53/10/1 52/8/1
f 6/11/1 43/12/1 38/13/1
f 9/14/1 55/15/1 46/16/1
f 9/14/1 56/17/1 55/15/1
f 7/18/1 44/19/1 41/20/1
f 25/21/1 58/22/1 57/23/1
f 25/21/1 59/24/1 58/22/1
f 12/25/1 28/26/1 60/27/1
f 23/28/1 61/29/1 39/30/1
f 23/28/1 62/31/1 61/29/1
f 24/32/1 40/33/1 63/34/1
f 14/35/1 64/36/1 30/37/1
f 14/35/1 65/38/1 64/36/1
f 23/28/1 39/30/1 66/39/1
f 22/40/1 67/41/1 54/42/1
f 22/40/1 68/43/1 67/41/1
f 11/44/1 27/45/1 69/46/1
f 20/47/1 70/48/1 36/49/1
f 20/47/1 71/50/1 70/48/1
f 21/51/1 37/52/1 72/53/1
f 15/54/1 73/55/1 47/56/1
f 15/54/1 74/57/1 73/55/1
f 20/47/1 36/49/1 75/58/1
f 10/59/1 76/60/1 42/61/1
f 10/59/1 77/62/1 76/60/1
f 16/63/1 32/64/1 78/65/1
f 19/66/1 79/67/1 35/68/1
f 19/66/1 80/69/1 79/67/1
f 17/70/1 33/71/1 81/72/1
f 81/72/1 40/33/1 24/32/1
f 81/72/1 33/71/1 40/33/1
f 33/71/1 7/18/1 40/33/1
f 79/67/1 81/72/1 24/32/1
f 79/67/1 80/69/1 81/72/1
f 80/69/1 17/70/1 81/72/1
f 35/68/1 56/17/1 9/14/1
f 35/68/1 79/67/1 56/17/1
f 79/67/1 24/32/1 56/17/1
f 78/65/1 37/52/1 21/51/1
f 78/65/1 32/64/1 37/52/1
f 32/64/1 6/11/1 37/52/1
f 76/60/1 78/65/1 21/51/1
f 76/60/1 77/62/1 78/65/1
f 77/62/1 16/63/1 78/65/1
f 42/61/1 53/10/1 5/7/1
f 42/61/1 76/60/1 53/10/1
f 76/60/1 21/51/1 53/10/1
f 75/58/1 46/16/1 14/35/1
f 75/58/1 36/49/1 46/16/1
f 36/49/1 9/14/1 46/16/1
f 73/55/1 75/58/1 14/35/1
f 73/55/1 74/57/1 75/58/1
f 74/57/1 20/47/1 75/58/1
f 47/56/1 30/37/1 3/73/1
f 47/56/1 73/55/1 30/37/1
f 73/55/1 14/35/1 30/37/1
f 72/53/1 38/13/1 22/40/1
f 72/53/1 37/52/1 38/13/1
f 37/52/1 6/11/1 38/13/1
f 70/48/1 72/53/1 22/40/1
f 70/48/1 71/50/1 72/53/1
f 71/50/1 21/51/1 72/53/1
f 36/49/1 54/42/1 9/14/1
f 36/49/1 70/48/1 54/42/1
f 70/48/1 22/40/1 54/42/1
f 69/46/1 51/3/1 19/66/1
f 69/46/1 27/45/1 51/3/1
f 27/45/1 2/1/1 51/3/1
f 67/41/1 69/46/1 19/66/1
f 67/41/1 68/43/1 69/46/1
f 68/43/1 11/44/1 69/46/1
f 54/42/1 35/68/1 9/14/1
f 54/42/1 67/41/1 35/68/1
f 67/41/1 19/66/1 35/68/1
f 66/39/1 45/74/1 13/75/1
f 66/39/1 39/30/1 45/74/1
f 39/30/1 8/76/1 45/74/1
f 64/36/1 66/39/1 13/75/1
f 64/36/1 65/38/1 66/39/1
f 65/38/1 23/28/1 66/39/1
f 30/37/1 29/77/1 3/73/1
f 30/37/1 64/36/1 29/77/1
f 64/36/1 13/75/1 29/77/1
f 63/34/1 41/20/1 25/21/1
f 63/34/1 40/33/1 41/20/1
f 40/33/1 7/18/1 41/20/1
f 61/29/1 63/34/1 25/21/1
f 61/29/1 62/31/1 63/34/1
f 62/31/1 24/32/1 63/34/1
f 39/30/1 57/23/1 8/76/1
f 39/30/1 61/29/1 57/23/1
f 61/29/1 25/21/1 57/23/1
f 60/27/1 50/78/1 18/79/1
f 60/27/1 28/26/1 50/78/1
f 28/26/1 4/80/1 50/78/1
f 58/22/1 60/27/1 18/79/1
f 58/22/1 59/24/1 60/27/1
f 59/24/1 12/25/1 60/27/1
f 57/23/1 34/81/1 8/76/1
f 57/23/1 58/22/1 34/81/1
f 58/22/1 18/79/1 34/81/1
f 41/20/1 59/24/1 25/21/1
f 41/20/1 44/19/1 59/24/1
f 44/19/1 12/25/1 59/24/1
f 55/15/1 62/31/1 23/28/1
f 55/15/1 56/17/1 62/31/1
f 56/17/1 24/32/1 62/31/1
f 46/16/1 65/38/1 14/35/1
f 46/16/1 55/15/1 65/38/1
f 55/15/1 23/28/1 65/38/1
f 38/13/1 68/43/1 22/40/1
f 38/13/1 43/12/1 68/43/1
f 43/12/1 11/44/1 68/43/1
f 52/8/1 71/50/1 20/47/1
f 52/8/1 53/10/1 71/50/1
f 53/10/1 21/51/1 71/50/1
f 31/9/1 74/57/1 15/54/1
f 31/9/1 52/8/1 74/57/1
f 52/8/1 20/47/1 74/57/1
f 26/6/1 77/62/1 10/59/1
f 26/6/1 48/5/1 77/62/1
f 48/5/1 16/63/1 77/62/1
f 51/3/1 80/69/1 19/66/1
f 51/3/1 49/2/1 80/69/1
f 49/2/1 17/70/1 80/69/1
